<?xml version="1.0" encoding="utf-8"?>
<?xml-stylesheet type="text/xsl" href="rss1.xsl"?>
<rss version="2.0" xmlns:atom="http://www.w3.org/2005/Atom" xmlns:content="http://purl.org/rss/1.0/modules/content/" xmlns:dc="http://purl.org/dc/elements/1.1/" xmlns:media="http://search.yahoo.com/mrss/">
<channel>
 <title>Getty</title>
 <link>http://www.gettyimg.com/</link>
 <atom:link href="http://www.gettyimg.com/" rel="self" type="application/rss+xml" />

 
                <item>
                <title><![CDATA[【Cinema Center】MOVIE - Uncle.Sam.1996.1080p.SHDR.WEB-DL.AAC2.0.H.264-Samuel]]></title>
                <link><![CDATA[https://sharemania.us/threads/uncle-sam-1996-1080p-shdr-web-dl-aac2-0-h-264-samuel.219592/]]></link>
                <description><![CDATA[<article>
<blockquote class="messageText SelectQuoteContainer ugc baseHtml">
<div style="text-align: center"><b><span style="font-size: 26px">Uncle Sam</span></b><br>
<img src="https://i.imgur.com/8bcUDUv.jpg" class="bbCodeImage LbImage" alt="[​IMG]" data-url="https://i.imgur.com/8bcUDUv.jpg" style=""><br>
<b><a href="https://i.imgur.com/QGDnYvM.jpg" target="_blank" class="externalLink" rel="nofollow">Poster</a></b> | <b><a href="https://i.imgur.com/yfYwLoA.jpg" target="_blank" class="externalLink" rel="nofollow">Background Art</a></b><br>
<br>
1 HR 16 MIN • 1996 • English • 90min • TV-MA<br>
<br>
<div class="bbCodeBlock bbCodeQuote">
<aside>
<blockquote class="quoteContainer"><div class="quote"><b><span style="font-size: 15px"><span style="font-family: 'Arial'">Description</span></span></b><br>
The corpse of a patriotic veteran comes back to life on July 4th, dons an Uncle Sam costume and goes on a killing spree in his hometown. Sam’s main target? Anyone who offends his ultra-patriotic views, including corrupt congressmen, anti-war people and more! But don’t think director William Lustig (MANIAC) and screenwriter Larry Cohen (GOD TOLD ME TO) are celebrating fascistic patriotism with their subversive and silly slasher. UNCLE SAM ultimately skewers the kind of rah-rah attitudes that have now come into full bloom 20 years after Lustig’s film was released.</div><div class="quoteExpand">Click to expand...</div></blockquote>
</aside>
</div>
<div class="bbCodeBlock bbCodeQuote">
<aside>
<blockquote class="quoteContainer"><div class="quote"><span style="font-family: 'Arial'"><span style="font-size: 15px"><b>Trailers &amp; Clips</b></span></span><br>
<div data-s9e-mediaembed="googledrive" style="display:inline-block;width:100%;max-width:640px"><div style="overflow:hidden;position:relative;padding-bottom:75%"><iframe allowfullscreen="" scrolling="no" src="//drive.google.com/file/d/1FIcJOVXcw2QEa94cq4ggAL3b1j467RAU/preview" style="border:0;height:100%;left:0;position:absolute;width:100%"></iframe></div></div></div><div class="quoteExpand quoteCut">Click to expand...</div></blockquote>
</aside>
</div>
<div class="bbCodeBlock bbCodeQuote">
<aside>
<blockquote class="quoteContainer"><div class="quote"><span style="font-family: 'Arial'"><span style="font-size: 15px"><b>Accessibility</b></span></span><br>
<b>Audio languages:</b> English<br>
<b>Subtitles:</b> English US, English US</div><div class="quoteExpand">Click to expand...</div></blockquote>
</aside>
</div>
<div class="bbCodeBlock bbCodeQuote">
<aside>
<blockquote class="quoteContainer"><div class="quote"><span style="font-family: 'Arial'"><span style="font-size: 15px"><b>More Information</b></span></span><br>
<b><i><span style="text-decoration: underline">Runtime</span></i></b><br>
90min<br>
<br>
<b><i><span style="text-decoration: underline">About This Movie</span></i></b><br>
The corpse of a patriotic veteran comes back to life on July 4th, dons an Uncle Sam costume and goes on a killing spree in his hometown. Sam’s main target? Anyone who offends his ultra-patriotic views, including corrupt congressmen, anti-war people and more! But don’t think director William Lustig (MANIAC) and screenwriter Larry Cohen (GOD TOLD ME TO) are celebrating fascistic patriotism with their subversive and silly slasher. UNCLE SAM ultimately skewers the kind of rah-rah attitudes that have now come into full bloom 20 years after Lustig’s film was released.<br>
<br>
<b><i><span style="text-decoration: underline">Cast</span></i></b><br>
William Smith, David 'Shark' Fralick, Christopher Ogden, Issac Hayes</div><div class="quoteExpand quoteCut">Click to expand...</div></blockquote>
</aside>
</div>
<div class="bbCodeBlock bbCodeQuote">
<aside>
<blockquote class="quoteContainer"><div class="quote"><b><span style="font-size: 15px"><span style="font-family: 'Arial'">Source</span></span></b><br>
<img src="https://i.imgur.com/iBinA6h.png" class="bbCodeImage LbImage" alt="[​IMG]" data-url="https://i.imgur.com/iBinA6h.png" style=""></div><div class="quoteExpand">Click to expand...</div></blockquote>
</aside>
</div>
<div class="bbCodeBlock bbCodeQuote">
<aside>
<blockquote class="quoteContainer"><div class="quote"><b><b><span style="font-size: 15px">Release Name</span></b></b><br>
Uncle.Sam.1996.1080p.SHDR.WEB-DL.AAC2.0.H.264-Samuel</div><div class="quoteExpand">Click to expand...</div></blockquote>
</aside>
</div>
<div class="ToggleTriggerAnchor bbCodeSpoilerContainer">
<button type="button" class="button bbCodeSpoilerButton ToggleTrigger Tooltip JsOnly" data-target="> .SpoilerTarget"><span>Spoiler: <span class="SpoilerTitle">Media Information</span></span></button>
<div class="SpoilerTarget bbCodeSpoilerText">General<br>
Complete name : Uncle.Sam.1996.1080p.SHDR.WEB-DL.AAC2.0.H.264-Samuel.mkv<br>
Format : Matroska<br>
Format version : Version 4<br>
File size : 2.25 GiB<br>
Duration : 1 h 29 min<br>
Overall bit rate : 3 615 kb/s<br>
Frame rate : 23.976 FPS<br>
Encoded date : 2023-04-23 05:04:15 UTC<br>
Writing application : mkvmerge v75.0.0 ('Goliath') 64-bit<br>
Writing library : libebml v1.4.4 + libmatroska v1.7.1<br>
<br>
Video<br>
ID : 1<br>
Format : AVC<br>
Format/Info : Advanced Video Codec<br>
Format profile : High@L4<br>
Format settings : CABAC / 4 Ref Frames<br>
Format settings, CABAC : Yes<br>
Format settings, Reference frames : 4 frames<br>
Codec ID : V_MPEG4/ISO/AVC<br>
Duration : 1 h 29 min<br>
Bit rate : 3 485 kb/s<br>
Width : 1 920 pixels<br>
Height : 1 080 pixels<br>
Display aspect ratio : 16:9<br>
Frame rate mode : Constant<br>
Frame rate : 23.976 (24000/1001) FPS<br>
Color space : YUV<br>
Chroma subsampling : 4:2:0<br>
Bit depth : 8 bits<br>
Scan type : Progressive<br>
Bits/(Pixel*Frame) : 0.070<br>
Stream size : 2.17 GiB (96%)<br>
Writing library : Zencoder Video Encoding System<br>
Default : Yes<br>
Forced : No<br>
Color range : Limited<br>
Color primaries : BT.709<br>
Transfer characteristics : BT.709<br>
Matrix coefficients : BT.709<br>
<br>
Audio<br>
ID : 2<br>
Format : AAC LC<br>
Format/Info : Advanced Audio Codec Low Complexity<br>
Codec ID : A_AAC-2<br>
Duration : 1 h 29 min<br>
Bit rate : 128 kb/s<br>
Channel(s) : 2 channels<br>
Channel layout : L R<br>
Sampling rate : 48.0 kHz<br>
Frame rate : 46.875 FPS (1024 SPF)<br>
Compression mode : Lossy<br>
Stream size : 81.5 MiB (4%)<br>
Language : English<br>
Default : Yes<br>
Forced : No<br>
<br>
Text #1<br>
ID : 3<br>
Format : UTF-8<br>
Codec ID : S_TEXT/UTF8<br>
Codec ID/Info : UTF-8 Plain Text<br>
Duration : 1 h 27 min<br>
Bit rate : 46 b/s<br>
Frame rate : 0.214 FPS<br>
Count of elements : 1119<br>
Stream size : 29.3 KiB (0%)<br>
Language : English (US)<br>
Default : No<br>
Forced : No<br>
<br>
Text #2<br>
ID : 4<br>
Format : UTF-8<br>
Codec ID : S_TEXT/UTF8<br>
Codec ID/Info : UTF-8 Plain Text<br>
Duration : 1 h 27 min<br>
Bit rate : 46 b/s<br>
Frame rate : 0.214 FPS<br>
Count of elements : 1119<br>
Stream size : 29.3 KiB (0%)<br>
Language : English (US)<br>
Default : No<br>
Forced : No</div>
</div><br>
<b>Screenshots</b><br>
<img src="https://i.imgur.com/AsRrxml.png" class="bbCodeImage LbImage" alt="[​IMG]" data-url="https://i.imgur.com/AsRrxml.png" style=""><br>
<br>
<b>Download</b><br>
<div class="bbCodeBlock bbCodeVfcHH HiddenContent">
<div class="attribution type">Hidden Content:</div>
<blockquote>You must reply before you can see the hidden data contained here.</blockquote>
</div></div>
<div class="messageTextEndMarker">&nbsp;</div>
</blockquote>
</article>]]></description>
                <author><![CDATA[Samuel]]></author>
                </item>

                </channel></rss>